<svg width="46" height="46" viewBox="0 0 46 46" fill="none" xmlns="http://www.w3.org/2000/svg">
<path d="M2.07879 9.5746C1.02494 8.59614 0.500854 7.38499 0.500854 5.94393C0.500854 4.50288 1.02775 3.23844 2.07879 2.25718C3.13264 1.27872 4.4892 0.788086 6.15125 0.788086C7.8133 0.788086 9.11662 1.27872 10.1677 2.25718C11.2215 3.23564 11.7456 4.46643 11.7456 5.94393C11.7456 7.42144 11.2187 8.59614 10.1677 9.5746C9.11382 10.5531 7.77687 11.0437 6.15125 11.0437C4.52563 11.0437 3.13264 10.5531 2.07879 9.5746ZM10.8599 15.1874V45.1861H1.38371V15.1874H10.8599Z" fill="#FEFFFC"/>
<path d="M42.4051 18.1505C44.4707 20.3934 45.5022 23.4717 45.5022 27.3912V44.6558H36.5025V28.608C36.5025 26.6314 35.9896 25.095 34.9665 24.0016C33.9435 22.9082 32.5646 22.3587 30.838 22.3587C29.1115 22.3587 27.7325 22.9054 26.7095 24.0016C25.6865 25.095 25.1736 26.6314 25.1736 28.608V44.6558H16.1206V15.1029H25.1736V19.0224C26.0901 17.7159 27.3262 16.6842 28.8789 15.9244C30.4316 15.1646 32.1778 14.7861 34.1201 14.7861C37.5787 14.7861 40.3422 15.9076 42.4051 18.1477V18.1505Z" fill="#FEFFFC"/>
</svg>
