<svg width="217" height="56" viewBox="0 0 217 56" fill="none" xmlns="http://www.w3.org/2000/svg">
<g clip-path="url(#clip0_1819_1413)">
<path d="M41.6827 28.8096C41.6827 28.8096 46.5907 30.5389 48.9197 29.1494C48.7798 27.63 47.6003 26.2105 46.6806 24.841C45.9909 23.5714 42.7323 19.3629 42.7723 18.8031C42.8822 17.3037 43.1521 16.7139 43.1521 15.7442C43.1521 14.7746 41.7327 13.7949 41.4228 13.595C41.043 13.3451 40.6631 13.1152 40.4032 12.7453C39.1638 10.916 37.1246 9.18657 35.0455 7.74709C35.0455 7.74709 35.0355 7.7271 35.0355 7.7171C36.065 0.849553 33.2862 0.40971 28.6681 3.53859H28.6481C26.479 2.80885 22.3307 2.27904 19.9417 2.27904C18.4024 2.27904 16.923 2.51896 15.5336 2.9588C15.5336 2.9588 15.5236 2.9588 15.5136 2.9588C6.54729 -1.8095 4.32821 -0.519958 7.66682 7.77708C7.66682 7.77708 7.66682 7.79707 7.66682 7.80707C2.94878 12.1855 0 18.4433 0 25.3808C0 38.6461 10.7455 49.3922 24.01 49.3922C24.14 49.3922 24.2599 49.3922 24.3899 49.3922C24.4199 49.3322 24.4199 49.3222 24.4499 49.2723C4.06831 40.2255 10.8155 25.5007 10.8855 25.7607C11.9151 29.6992 13.9242 34.5175 17.6127 34.8074C23.5602 35.2773 23.4803 36.5568 28.7981 39.8956C31.347 40.9552 35.0555 43.4643 38.2042 43.4643C40.6232 43.4643 46.0409 35.1173 45.9709 35.0373C43.8518 32.2983 39.3437 29.6493 41.6727 28.8096H41.6827ZM25.2395 11.0159C26.7989 11.0159 28.988 14.1348 28.5282 14.5946C28.1283 14.9945 25.1596 13.485 24.2699 13.0152C24.05 12.9052 23.8601 12.7453 23.7302 12.5454C23.1604 11.7057 23.8601 11.0159 25.2495 11.0159H25.2395ZM21.9709 17.0838C20.2916 17.0838 19.7918 16.6439 19.7918 15.7142C19.7918 14.7846 22.7806 14.9045 22.7806 14.9045C26.0792 15.0245 23.6502 17.0838 21.9709 17.0838ZM30.5573 30.8488C30.3374 30.9188 30.1575 30.6589 30.2974 30.469C30.5573 30.1391 30.8972 29.6893 31.287 29.1494C31.367 29.0395 31.447 28.9195 31.5369 28.8096C31.6869 28.5996 31.8468 28.3697 31.9967 28.1398C32.0567 28.0498 32.1267 27.9499 32.1867 27.8599C32.2466 27.7599 32.3166 27.67 32.3766 27.57L32.4765 27.4201C32.5265 27.3501 32.5765 27.2701 32.6165 27.2001C32.6964 27.0802 32.7764 26.9502 32.8564 26.8203C32.9164 26.7203 32.9763 26.6203 33.0363 26.5104C33.0963 26.4104 33.1562 26.3105 33.2162 26.2005C33.3062 26.0506 33.3962 25.8906 33.4761 25.7307C33.5361 25.6307 33.5861 25.5207 33.646 25.4208C33.696 25.3208 33.756 25.2109 33.806 25.1109C33.856 25.0009 33.9059 24.901 33.9559 24.801C34.0259 24.6411 34.0959 24.4911 34.1658 24.3412C34.2058 24.2412 34.2558 24.1412 34.2958 24.0413C34.3358 23.9413 34.3757 23.8413 34.4157 23.7414C34.4457 23.6514 34.4757 23.5714 34.5057 23.4815C34.5057 23.4715 34.5057 23.4515 34.5157 23.4415C34.5357 23.3715 34.5657 23.3015 34.5857 23.2216C34.6356 23.0516 34.6856 22.8917 34.7156 22.7317C34.7356 22.6518 34.7456 22.5718 34.7656 22.4918L34.7856 22.3719C34.7856 22.3719 34.7956 22.2919 34.8056 22.2619C34.8156 22.1519 34.8256 22.052 34.8356 21.952C34.8356 21.912 34.8356 21.872 34.8356 21.8321C34.8356 21.7821 34.8356 21.7221 34.8356 21.6721C34.8356 21.6321 34.8356 21.5921 34.8356 21.5622C34.8356 21.5622 34.8356 21.5222 34.8356 21.5122C34.8356 21.4722 34.8256 21.4322 34.8156 21.3822C34.8156 21.3422 34.8056 21.3022 34.7956 21.2623V21.2223C34.7956 21.2223 34.7656 21.1423 34.7556 21.1123C34.7556 21.1123 34.7456 21.0523 34.7356 21.0323C34.7356 21.0323 34.7156 20.9824 34.7156 20.9624C34.6956 20.9224 34.6856 20.8924 34.6656 20.8524C34.6456 20.8224 34.6256 20.7824 34.6056 20.7524C34.6056 20.7424 34.5957 20.7325 34.5857 20.7225C34.5857 20.7225 34.5457 20.6525 34.5257 20.6325C34.4957 20.5925 34.4657 20.5625 34.4357 20.5325C34.4057 20.5025 34.3757 20.4725 34.3358 20.4426C34.3058 20.4126 34.2658 20.3926 34.2358 20.3626C34.2358 20.3626 34.2158 20.3526 34.2158 20.3426H34.1958C34.1958 20.3426 34.1458 20.2926 34.1159 20.2726H34.1059C34.1059 20.2726 34.0259 20.2226 33.9759 20.1926C33.886 20.1427 33.786 20.1027 33.676 20.0727C33.4661 20.0027 33.2562 19.9427 33.0563 19.8828C32.9563 19.8528 32.8564 19.8228 32.7564 19.7928C32.6565 19.7628 32.5565 19.7328 32.4565 19.7128C32.2966 19.6728 32.1467 19.6228 31.9967 19.5829C31.9168 19.5629 31.8468 19.5429 31.7768 19.5229C31.6269 19.4829 31.4869 19.4429 31.337 19.4029C31.2271 19.3729 31.1271 19.3429 31.0171 19.313C30.9172 19.283 30.8172 19.253 30.7173 19.223C30.6173 19.193 30.5173 19.163 30.4274 19.133C30.3774 19.123 30.3274 19.103 30.2874 19.093C30.2375 19.083 30.1975 19.063 30.1475 19.0531C30.0275 19.0131 29.9076 18.9731 29.7876 18.9331C29.6577 18.8831 29.5278 18.8331 29.4078 18.7831C29.3378 18.7532 29.2779 18.7232 29.2179 18.7032H29.1879C29.0679 18.6332 28.948 18.5732 28.838 18.5132C28.8081 18.4933 28.7781 18.4833 28.7581 18.4633C28.7281 18.4433 28.6981 18.4233 28.6781 18.4133C28.6581 18.4033 28.6281 18.3733 28.5981 18.3633C28.5682 18.3433 28.5482 18.3233 28.5182 18.3033C28.4682 18.2633 28.4182 18.2333 28.3682 18.1934C28.3482 18.1734 28.3283 18.1634 28.3083 18.1434C28.2783 18.1234 28.2583 18.0934 28.2283 18.0734C28.1983 18.0434 28.1783 18.0234 28.1483 17.9934C28.1283 17.9734 28.0983 17.9434 28.0784 17.9235V17.9035H28.0584C28.0584 17.9035 28.0284 17.8635 28.0184 17.8435C27.9984 17.8135 27.9684 17.7835 27.9484 17.7535C27.9184 17.7035 27.8784 17.6635 27.8285 17.6136C27.8085 17.5936 27.7785 17.5736 27.7585 17.5436C27.7485 17.5336 27.7285 17.5136 27.7085 17.5036C27.6785 17.4736 27.6385 17.4436 27.6086 17.4236C27.5786 17.4036 27.5586 17.3836 27.5286 17.3637C27.4686 17.3237 27.4086 17.2937 27.3487 17.2637C27.2887 17.2337 27.2187 17.2037 27.1587 17.1737C27.0988 17.1437 27.0288 17.1137 26.9588 17.0938C26.8189 17.0438 26.6889 16.9938 26.549 16.9538C26.519 16.9538 26.489 16.9338 26.469 16.9138C26.459 16.9138 26.449 16.8938 26.439 16.8838L26.419 16.8638C26.419 16.8638 26.409 16.8538 26.409 16.8438C26.409 16.8338 26.3891 16.8139 26.3891 16.8039C26.3891 16.7939 26.3891 16.7739 26.3791 16.7639C26.3591 16.6439 26.419 16.504 26.579 16.484C28.0584 16.254 30.6073 15.9941 32.6565 16.504C32.8564 16.5539 33.0163 16.354 32.9363 16.1741C32.6065 15.4343 32.0267 14.0148 32.0767 13.0652C32.0767 13.0452 32.0767 13.0252 32.0767 13.0052C32.0767 12.9852 32.0767 12.9752 32.0767 12.9552C32.0767 12.9352 32.0767 12.9252 32.0767 12.9052C32.0767 12.9052 32.0767 12.8453 32.0867 12.8253C32.0867 12.8253 32.0867 12.8153 32.0867 12.8053C32.0867 12.8053 32.0867 12.7453 32.1067 12.7253C32.1067 12.7153 32.1067 12.7053 32.1067 12.6953V12.6653C32.1067 12.6653 32.1267 12.6453 32.1267 12.6353V12.6054H32.1367C32.1367 12.6054 32.1567 12.5654 32.1667 12.5454C32.1667 12.5354 32.1667 12.5254 32.1867 12.5054C32.1867 12.5054 32.2066 12.4554 32.2166 12.4354V12.4154C32.2166 12.4154 32.2566 12.3754 32.2766 12.3654C32.2966 12.3454 32.3166 12.3255 32.3366 12.3155H32.3466C32.3466 12.3155 32.3866 12.2755 32.4166 12.2655C32.4465 12.2455 32.4665 12.2355 32.4965 12.2255C32.5265 12.2155 32.5565 12.1955 32.5865 12.1955C32.6165 12.1855 32.6465 12.1755 32.6864 12.1755C32.7564 12.1555 32.8264 12.1555 32.9064 12.1555C32.9963 12.1555 33.0863 12.1555 33.1762 12.1755C33.1762 12.1755 33.1962 12.1755 33.2062 12.1755C33.2462 12.1755 33.2862 12.1755 33.3262 12.1955C33.3662 12.1955 33.4161 12.2155 33.4561 12.2255C33.4961 12.2255 33.5361 12.2455 33.5761 12.2655C33.736 12.3155 33.876 12.3854 34.0059 12.4854C34.0359 12.5054 34.2758 12.7353 34.2858 12.7453C34.2958 12.7553 34.3358 12.7953 34.3358 12.8053C34.3558 12.8253 34.3658 12.8453 34.3857 12.8653C34.3857 12.8653 34.4057 12.8853 34.4157 12.8952C34.4457 12.9352 34.4757 12.9752 34.4957 13.0252C34.5257 13.0752 34.5557 13.1252 34.5757 13.1751C34.6057 13.2351 34.6256 13.2851 34.6456 13.3351C34.6656 13.3851 34.6856 13.4351 34.6956 13.475C34.6956 13.475 34.7056 13.515 34.7156 13.535C34.7156 13.545 34.7156 13.555 34.7256 13.565C34.7256 13.565 34.7256 13.585 34.7256 13.595C34.7356 13.635 34.7556 13.665 34.7656 13.705C34.7756 13.7549 34.8256 13.9249 34.8356 13.9549C34.8356 13.9749 34.8356 13.9849 34.8456 14.0049C34.8456 14.0448 34.8655 14.0948 34.8755 14.1348C34.8855 14.1948 34.8955 14.2548 34.9055 14.3247C34.9155 14.3947 34.9255 14.4747 34.9355 14.5547C34.9355 14.6146 34.9455 14.6646 34.9555 14.7246C34.9555 14.7646 34.9555 14.7946 34.9655 14.8346V14.8945C34.9655 14.8945 34.9755 14.9945 34.9855 15.0345C34.9855 15.1145 34.9855 15.1944 34.9955 15.2844C34.9955 15.2944 34.9955 15.3144 34.9955 15.3244C34.9955 15.4044 34.9955 15.4843 34.9955 15.5743C34.9955 15.6143 34.9955 15.6643 34.9955 15.7142C34.9955 15.7642 34.9955 15.8042 34.9955 15.8542C34.9955 16.5439 34.9455 17.3137 34.8655 18.1534C34.8655 18.1934 34.8655 18.2433 34.8855 18.2833C34.9055 18.3133 34.9255 18.3433 34.9555 18.3633C34.9955 18.3933 35.0355 18.4333 35.0954 18.4733C35.0954 18.4733 35.1854 18.5432 35.2354 18.5832C35.2354 18.5832 35.2654 18.6132 35.2854 18.6232C35.3054 18.6332 35.3154 18.6532 35.3353 18.6732C35.3553 18.6832 35.3753 18.7032 35.3953 18.7232C35.4153 18.7432 35.4353 18.7532 35.4553 18.7732C35.4753 18.7931 35.4953 18.8031 35.5153 18.8231C35.5153 18.8231 35.5952 18.8931 35.6452 18.9431C35.7152 19.0031 35.7752 19.063 35.8451 19.133C35.8951 19.173 35.9451 19.223 35.9851 19.273C36.0151 19.293 36.0351 19.323 36.055 19.3429C36.175 19.4629 36.3049 19.6029 36.4349 19.7428C36.4849 19.8028 36.5349 19.8528 36.5948 19.9227C36.6248 19.9527 36.6448 19.9827 36.6748 20.0127C36.7048 20.0427 36.7248 20.0727 36.7548 20.1027C36.8347 20.1926 36.9147 20.2926 36.9847 20.3926C37.0147 20.4226 37.0346 20.4625 37.0646 20.4925C37.1146 20.5625 37.1646 20.6225 37.2146 20.6925C37.2346 20.7225 37.2645 20.7624 37.2845 20.8024C37.3345 20.8724 37.3845 20.9424 37.4345 21.0124C37.4845 21.0823 37.5344 21.1623 37.5744 21.2323C37.6244 21.3022 37.6644 21.3822 37.7144 21.4622L37.7443 21.5222C37.7743 21.5821 37.8143 21.6421 37.8443 21.7021C37.8643 21.7421 37.8843 21.7821 37.9043 21.8221C37.9443 21.902 37.9842 21.982 38.0242 22.062C38.1142 22.2419 38.1942 22.4318 38.2641 22.6318V22.6518C38.2841 22.7017 38.3041 22.7617 38.3241 22.8117C38.3341 22.8517 38.3541 22.8917 38.3641 22.9217C38.3641 22.9317 38.3641 22.9517 38.3741 22.9617C38.3941 23.0216 38.4041 23.0716 38.4241 23.1316V23.1516C38.4241 23.1516 38.4441 23.2316 38.4541 23.2715C38.4541 23.2915 38.4541 23.3115 38.4641 23.3315C38.474 23.3915 38.484 23.4415 38.494 23.5015C38.504 23.5714 38.514 23.6314 38.524 23.6914C38.524 23.7414 38.534 23.7814 38.544 23.8313C38.544 23.8813 38.544 23.9313 38.554 23.9713C38.554 24.0613 38.554 24.1612 38.554 24.2612C38.554 26.5104 36.7348 28.9695 30.5473 30.8488H30.5573Z" fill="white"/>
<path d="M64.5132 12.6655C62.9839 12.6655 61.6644 12.4456 60.5649 11.9957C59.4653 11.5459 58.6057 10.9061 58.0159 10.0564C57.4262 9.20671 57.1263 8.18708 57.1263 6.9975C57.1263 5.80793 57.4262 4.7683 58.0159 3.9186C58.6157 3.0689 59.4653 2.42913 60.5649 1.97929C61.6644 1.52945 62.9839 1.30953 64.5132 1.30953H64.7531C66.2925 1.30953 67.6219 1.52945 68.7315 1.97929C69.841 2.42913 70.6907 3.0689 71.2904 3.9186C71.8902 4.7683 72.18 5.78793 72.18 6.9975C72.18 8.20707 71.8802 9.20671 71.2904 10.0564C70.6907 10.9061 69.841 11.5459 68.7415 11.9957C67.6419 12.4456 66.3125 12.6655 64.7731 12.6655H64.5132ZM64.6432 11.8758H64.7331C66.0926 11.8658 67.2521 11.6658 68.2217 11.296C69.1913 10.9161 69.941 10.3663 70.4607 9.63656C70.9805 8.90682 71.2404 8.02713 71.2404 6.9875C71.2404 5.94788 70.9805 5.06819 70.4607 4.33845C69.941 3.61871 69.2013 3.0689 68.2317 2.67904C67.2621 2.29918 66.1026 2.10925 64.7531 2.10925H64.6432C63.2737 2.10925 62.0942 2.29918 61.1146 2.66905C60.125 3.04891 59.3753 3.59871 58.8456 4.32845C58.3158 5.05819 58.0559 5.94788 58.0559 6.9975C58.0559 8.04713 58.3258 8.92681 58.8556 9.64655C59.3853 10.3763 60.145 10.9261 61.1346 11.306C62.1242 11.6858 63.2937 11.8658 64.6432 11.8658V11.8758ZM64.1933 14.005V0H65.113V14.005H64.1933Z" fill="white"/>
<path d="M75.0488 13.5853V3.76879H75.9884V12.1358L82.9855 3.75879H83.8152V13.5853H82.8756V5.21827L75.8785 13.5953H75.0488V13.5853Z" fill="white"/>
<path d="M87.3237 13.585V3.76855H88.2633V8.24696H94.9206V3.76855H95.8602V13.585H94.9206V9.06666H88.2633V13.585H87.3237Z" fill="white"/>
<path d="M102.338 13.6649C101.608 13.6649 100.978 13.5449 100.448 13.315C99.9186 13.0851 99.5087 12.7552 99.2288 12.3254C98.949 11.8955 98.809 11.4057 98.809 10.8559C98.809 10.3561 98.929 9.89623 99.1589 9.48638C99.3888 9.07653 99.7786 8.74664 100.318 8.48674C100.858 8.22683 101.578 8.09688 102.487 8.09688H106.096V8.82661H102.497C101.478 8.82661 100.768 9.01655 100.358 9.38642C99.9486 9.75628 99.7486 10.2361 99.7486 10.7959C99.7486 11.4257 99.9885 11.9255 100.468 12.3054C100.948 12.6852 101.618 12.8752 102.477 12.8752C103.337 12.8752 104.007 12.6852 104.577 12.3054C105.146 11.9255 105.566 11.3857 105.846 10.666L106.106 11.3057C105.846 12.0255 105.396 12.5853 104.757 13.0051C104.127 13.425 103.317 13.6349 102.338 13.6349V13.6649ZM105.876 13.5849V11.3457L105.836 11.0058V7.31715C105.836 6.39748 105.586 5.70773 105.096 5.2279C104.597 4.74807 103.877 4.50816 102.927 4.50816C102.248 4.50816 101.618 4.62811 101.038 4.85803C100.458 5.08795 99.9585 5.38784 99.5387 5.74771L99.0689 5.06796C99.5587 4.62811 100.148 4.28824 100.838 4.03832C101.528 3.79841 102.248 3.66846 103.007 3.66846C104.227 3.66846 105.156 3.97835 105.816 4.58813C106.466 5.20791 106.796 6.11758 106.796 7.33715V13.5649H105.896L105.876 13.5849Z" fill="white"/>
<path d="M110.044 13.585V3.76855H110.984V8.24696H117.641V3.76855H118.581V13.585H117.641V9.06666H110.984V13.585H110.044Z" fill="white"/>
<path d="M126.438 13.6649C125.488 13.6649 124.638 13.455 123.889 13.0251C123.139 12.5953 122.549 12.0055 122.119 11.2558C121.69 10.506 121.47 9.64635 121.47 8.6767C121.47 7.70704 121.69 6.82736 122.119 6.07762C122.549 5.32789 123.139 4.7381 123.889 4.31825C124.638 3.8984 125.488 3.68848 126.438 3.68848C127.227 3.68848 127.947 3.83842 128.597 4.13832C129.246 4.43821 129.766 4.88805 130.166 5.49783L129.466 6.00765C129.116 5.50783 128.677 5.13796 128.147 4.89804C127.617 4.65813 127.047 4.53817 126.438 4.53817C125.668 4.53817 124.988 4.70811 124.378 5.05799C123.769 5.40786 123.289 5.88769 122.949 6.50747C122.599 7.12725 122.429 7.85699 122.429 8.6767C122.429 9.4964 122.599 10.2261 122.949 10.8459C123.289 11.4657 123.769 11.9455 124.378 12.2954C124.988 12.6453 125.678 12.8152 126.438 12.8152C127.047 12.8152 127.627 12.6953 128.147 12.4553C128.667 12.2154 129.116 11.8456 129.466 11.3457L130.166 11.8556C129.766 12.4553 129.236 12.9052 128.597 13.2151C127.947 13.515 127.227 13.6649 126.438 13.6649Z" fill="white"/>
<path d="M136.883 13.6649C135.944 13.6649 135.104 13.455 134.374 13.0251C133.645 12.5953 133.055 12.0055 132.625 11.2558C132.195 10.506 131.975 9.64635 131.975 8.6767C131.975 7.70704 132.195 6.83735 132.625 6.08762C133.055 5.33789 133.645 4.75809 134.374 4.32825C135.104 3.8984 135.944 3.68848 136.883 3.68848C137.823 3.68848 138.662 3.8984 139.402 4.32825C140.142 4.75809 140.722 5.33789 141.151 6.08762C141.581 6.83735 141.791 7.69705 141.791 8.6767C141.791 9.65635 141.581 10.506 141.151 11.2558C140.722 12.0055 140.142 12.5953 139.402 13.0251C138.662 13.455 137.823 13.6649 136.883 13.6649ZM136.883 12.8152C137.633 12.8152 138.313 12.6453 138.912 12.2954C139.512 11.9555 139.982 11.4657 140.322 10.8359C140.662 10.2061 140.832 9.48641 140.832 8.6667C140.832 7.84699 140.662 7.11725 140.322 6.49747C139.982 5.87769 139.512 5.39787 138.912 5.04799C138.313 4.70811 137.633 4.52818 136.883 4.52818C136.134 4.52818 135.454 4.69812 134.864 5.04799C134.264 5.39787 133.794 5.87769 133.455 6.49747C133.105 7.11725 132.935 7.84699 132.935 8.6667C132.935 9.48641 133.105 10.2061 133.455 10.8359C133.794 11.4657 134.274 11.9455 134.864 12.2954C135.464 12.6453 136.134 12.8152 136.883 12.8152Z" fill="white"/>
<path d="M144.67 13.585V3.76855H148.808C149.888 3.76855 150.737 3.97848 151.367 4.40833C151.997 4.83817 152.307 5.45795 152.307 6.26766C152.307 7.07737 152.007 7.67716 151.397 8.09701C150.787 8.50686 149.998 8.71679 149.038 8.71679L149.298 8.43689C150.448 8.43689 151.297 8.64681 151.837 9.07666C152.377 9.50651 152.647 10.1263 152.647 10.956C152.647 11.7857 152.347 12.4455 151.737 12.9053C151.127 13.3651 150.188 13.595 148.918 13.595H144.66L144.67 13.585ZM145.59 8.23696H148.748C149.578 8.23696 150.218 8.07702 150.677 7.76713C151.137 7.45724 151.367 6.98741 151.367 6.37762C151.367 5.76784 151.137 5.29801 150.677 4.99812C150.218 4.68823 149.578 4.53828 148.748 4.53828H145.59V8.24696V8.23696ZM145.59 12.8153H148.898C149.818 12.8153 150.508 12.6654 150.987 12.3655C151.467 12.0656 151.707 11.5858 151.707 10.916C151.707 10.2462 151.497 9.74642 151.077 9.43653C150.657 9.12664 149.978 8.97669 149.058 8.97669H145.6V12.8153H145.59Z" fill="white"/>
<path d="M158.784 13.6649C158.054 13.6649 157.425 13.5449 156.895 13.315C156.365 13.0851 155.955 12.7552 155.675 12.3254C155.396 11.8955 155.256 11.4057 155.256 10.8559C155.256 10.3561 155.376 9.89623 155.605 9.48638C155.835 9.07653 156.225 8.74664 156.765 8.48674C157.305 8.22683 158.024 8.09688 158.934 8.09688H162.543V8.82661H158.944C157.924 8.82661 157.215 9.01655 156.805 9.38642C156.395 9.75628 156.195 10.2361 156.195 10.7959C156.195 11.4257 156.435 11.9255 156.915 12.3054C157.395 12.6852 158.064 12.8752 158.924 12.8752C159.784 12.8752 160.453 12.6852 161.023 12.3054C161.593 11.9255 162.013 11.3857 162.293 10.666L162.553 11.3057C162.293 12.0255 161.843 12.5853 161.203 13.0051C160.573 13.425 159.764 13.6349 158.784 13.6349V13.6649ZM162.323 13.5849V11.3457L162.283 11.0058V7.31715C162.283 6.39748 162.033 5.70773 161.543 5.2279C161.043 4.74807 160.323 4.50816 159.374 4.50816C158.694 4.50816 158.064 4.62811 157.485 4.85803C156.905 5.08795 156.405 5.38784 155.985 5.74771L155.515 5.06796C156.005 4.62811 156.595 4.28824 157.285 4.03832C157.974 3.79841 158.694 3.66846 159.454 3.66846C160.673 3.66846 161.603 3.97835 162.263 4.58813C162.912 5.20791 163.242 6.11758 163.242 7.33715V13.5649H162.343L162.323 13.5849Z" fill="white"/>
<path d="M166.391 13.5853L169.12 9.80663H170.119L167.431 13.5853H166.401H166.391ZM173.618 13.5853V9.96657L173.828 10.1965H170.349C169.12 10.1965 168.16 9.92659 167.481 9.39677C166.801 8.86696 166.451 8.07725 166.451 7.03762C166.451 5.93801 166.821 5.10831 167.561 4.5685C168.3 4.02869 169.28 3.75879 170.499 3.75879H174.488V13.5853H173.618ZM173.618 9.70666V4.30859L173.828 4.58849H170.549C169.55 4.58849 168.77 4.77842 168.22 5.16829C167.67 5.55815 167.391 6.18792 167.391 7.06761C167.391 8.67703 168.41 9.47675 170.439 9.47675H173.828L173.618 9.70666Z" fill="white"/>
<path d="M58.4658 32.8184V19.6431H59.4254V31.1989L68.4016 19.6431H69.2513V32.8184H68.2917V21.2825L59.3154 32.8184H58.4658Z" fill="white"/>
<path d="M73.8493 32.7884V22.582H74.789V27.0604H81.4462V22.582H82.3858V32.7884H81.4562V27.8901H74.779V32.7884H73.8394H73.8493Z" fill="white"/>
<path d="M91.652 32.908C89.7428 32.898 88.2634 32.4482 87.2038 31.5685C86.1443 30.6888 85.6145 29.4592 85.6145 27.8798C85.6145 26.3004 86.1543 25.0908 87.2238 24.2211C88.2934 23.3514 89.8028 22.9116 91.732 22.9116H91.9219C93.8511 22.9116 95.3605 23.3514 96.44 24.2211C97.5196 25.0908 98.0593 26.3104 98.0593 27.8798C98.0593 29.4492 97.5196 30.7088 96.43 31.5885C95.3405 32.4682 93.8311 32.908 91.8819 32.908H91.652ZM91.732 32.0583H91.8819C93.0114 32.0583 93.961 31.8984 94.7407 31.5685C95.5204 31.2386 96.1101 30.7688 96.52 30.149C96.9298 29.5292 97.1297 28.7695 97.1297 27.8798C97.1297 26.9901 96.9298 26.2504 96.52 25.6406C96.1101 25.0308 95.5204 24.561 94.7407 24.2411C93.961 23.9212 93.0114 23.7613 91.8819 23.7613H91.712C90.6124 23.7613 89.6728 23.9212 88.8931 24.2511C88.1235 24.581 87.5337 25.0508 87.1439 25.6606C86.754 26.2804 86.5541 27.0201 86.5541 27.8798C86.5541 28.7395 86.754 29.5092 87.1539 30.129C87.5537 30.7488 88.1434 31.2286 88.9131 31.5485C89.6828 31.8784 90.6224 32.0483 91.732 32.0583ZM91.3721 36.4667V18.853H92.2917V36.4667H91.3721Z" fill="white"/>
<path d="M101.308 36.4668V22.9916H102.208V26.2105L102.058 27.9199L102.248 29.6292V36.4568H101.308V36.4668ZM106.236 32.8881C105.366 32.8881 104.587 32.6882 103.897 32.2883C103.197 31.8884 102.647 31.3086 102.238 30.5689C101.828 29.8292 101.628 28.9295 101.628 27.9099C101.628 26.8902 101.828 25.9905 102.238 25.2508C102.647 24.5011 103.197 23.9313 103.897 23.5314C104.597 23.1316 105.376 22.9316 106.236 22.9316C107.166 22.9316 107.995 23.1416 108.725 23.5614C109.455 23.9813 110.034 24.5711 110.454 25.3208C110.874 26.0705 111.084 26.9402 111.084 27.9199C111.084 28.8995 110.874 29.7692 110.454 30.5189C110.034 31.2687 109.455 31.8585 108.725 32.2783C107.995 32.6982 107.156 32.9081 106.236 32.9081V32.8881ZM106.176 32.0384C106.926 32.0384 107.605 31.8684 108.205 31.5186C108.805 31.1787 109.285 30.6889 109.625 30.0591C109.974 29.4293 110.144 28.7096 110.144 27.8899C110.144 27.0702 109.974 26.3404 109.625 25.7206C109.285 25.1009 108.805 24.621 108.205 24.2712C107.605 23.9313 106.926 23.7513 106.176 23.7513C105.426 23.7513 104.747 23.9213 104.157 24.2712C103.557 24.621 103.087 25.1009 102.747 25.7206C102.408 26.3404 102.228 27.0702 102.228 27.8899C102.228 28.7096 102.398 29.4293 102.747 30.0591C103.097 30.6889 103.567 31.1687 104.157 31.5186C104.757 31.8684 105.426 32.0384 106.176 32.0384Z" fill="white"/>
<path d="M116.912 32.8983C116.182 32.8983 115.552 32.7783 115.022 32.5484C114.493 32.3185 114.083 31.9886 113.803 31.5588C113.523 31.1289 113.383 30.6391 113.383 30.0893C113.383 29.5895 113.503 29.1296 113.733 28.7198C113.963 28.3099 114.353 27.98 114.892 27.7201C115.432 27.4602 116.152 27.3303 117.061 27.3303H120.67V28.06H117.071C116.052 28.06 115.342 28.2499 114.932 28.6198C114.523 28.9897 114.323 29.4695 114.323 30.0293C114.323 30.6591 114.563 31.1589 115.042 31.5388C115.522 31.9186 116.192 32.1086 117.051 32.1086C117.911 32.1086 118.581 31.9186 119.151 31.5388C119.72 31.1589 120.14 30.6191 120.42 29.8994L120.68 30.5391C120.42 31.2589 119.97 31.8187 119.331 32.2385C118.701 32.6584 117.891 32.8683 116.912 32.8683V32.8983ZM120.45 32.8183V30.5791L120.41 30.2392V26.5506C120.41 25.6309 120.16 24.9411 119.67 24.4613C119.171 23.9815 118.451 23.7416 117.501 23.7416C116.822 23.7416 116.192 23.8615 115.612 24.0914C115.032 24.3213 114.533 24.6212 114.113 24.9811L113.643 24.3014C114.133 23.8615 114.722 23.5216 115.412 23.2717C116.102 23.0318 116.822 22.9019 117.581 22.9019C118.801 22.9019 119.73 23.2117 120.39 23.8215C121.04 24.4413 121.37 25.351 121.37 26.5705V32.7983H120.47L120.45 32.8183Z" fill="white"/>
<path d="M128.577 32.8983C127.627 32.8983 126.777 32.6884 126.028 32.2585C125.278 31.8287 124.688 31.2389 124.258 30.4892C123.829 29.7394 123.609 28.8797 123.609 27.9101C123.609 26.9404 123.829 26.0608 124.258 25.311C124.688 24.5613 125.278 23.9715 126.028 23.5516C126.777 23.1318 127.627 22.9219 128.577 22.9219C129.366 22.9219 130.086 23.0718 130.736 23.3717C131.386 23.6716 131.905 24.1214 132.305 24.7312L131.605 25.241C131.256 24.7412 130.816 24.3714 130.286 24.1314C129.756 23.8915 129.186 23.7716 128.577 23.7716C127.807 23.7716 127.127 23.9415 126.518 24.2914C125.908 24.6413 125.428 25.1211 125.088 25.7409C124.738 26.3606 124.568 27.0904 124.568 27.9101C124.568 28.7298 124.738 29.4595 125.088 30.0793C125.428 30.6991 125.908 31.1789 126.518 31.5288C127.127 31.8787 127.817 32.0486 128.577 32.0486C129.186 32.0486 129.766 31.9287 130.286 31.6887C130.806 31.4488 131.256 31.079 131.605 30.5791L132.305 31.089C131.905 31.6887 131.376 32.1386 130.736 32.4485C130.086 32.7484 129.366 32.8983 128.577 32.8983Z" fill="white"/>
<path d="M137.593 32.8182V23.5615L137.853 23.8414H133.755V22.9917H142.371V23.8414H138.273L138.533 23.5615V32.8182H137.593Z" fill="white"/>
<path d="M144.59 36.4668V22.9916H145.49V26.2105L145.34 27.9199L145.53 29.6292V36.4568H144.59V36.4668ZM149.518 32.8881C148.648 32.8881 147.869 32.6882 147.179 32.2883C146.479 31.8884 145.929 31.3086 145.52 30.5689C145.11 29.8292 144.91 28.9295 144.91 27.9099C144.91 26.8902 145.11 25.9905 145.52 25.2508C145.929 24.5011 146.479 23.9313 147.179 23.5314C147.879 23.1316 148.658 22.9316 149.518 22.9316C150.448 22.9316 151.277 23.1416 152.007 23.5614C152.737 23.9813 153.316 24.5711 153.736 25.3208C154.156 26.0705 154.366 26.9402 154.366 27.9199C154.366 28.8995 154.156 29.7692 153.736 30.5189C153.316 31.2687 152.737 31.8585 152.007 32.2783C151.277 32.6982 150.438 32.9081 149.518 32.9081V32.8881ZM149.458 32.0384C150.208 32.0384 150.887 31.8684 151.487 31.5186C152.087 31.1787 152.567 30.6889 152.907 30.0591C153.256 29.4293 153.426 28.7096 153.426 27.8899C153.426 27.0702 153.256 26.3404 152.907 25.7206C152.567 25.1009 152.087 24.621 151.487 24.2712C150.887 23.9313 150.208 23.7513 149.458 23.7513C148.708 23.7513 148.029 23.9213 147.439 24.2712C146.839 24.621 146.369 25.1009 146.029 25.7206C145.69 26.3404 145.51 27.0702 145.51 27.8899C145.51 28.7096 145.68 29.4293 146.029 30.0591C146.379 30.6889 146.849 31.1687 147.439 31.5186C148.039 31.8684 148.708 32.0384 149.458 32.0384Z" fill="white"/>
<path d="M157.245 36.5471C156.795 36.5471 156.365 36.4671 155.975 36.3172C155.575 36.1672 155.246 35.9473 154.966 35.6574L155.436 34.9377C155.685 35.1976 155.955 35.3975 156.255 35.5175C156.555 35.6474 156.885 35.7074 157.265 35.7074C157.715 35.7074 158.114 35.5774 158.464 35.3275C158.814 35.0776 159.134 34.6178 159.434 33.958L160.114 32.4486L160.244 32.2786L164.402 22.9819H165.361L160.314 34.1479C160.054 34.7477 159.764 35.2276 159.454 35.5674C159.144 35.9073 158.814 36.1572 158.444 36.3072C158.084 36.4571 157.675 36.5371 157.235 36.5371L157.245 36.5471ZM160.084 33.0683L155.525 23.0019H156.525L160.663 32.2386L160.084 33.0683Z" fill="white"/>
<path d="M167.061 32.8182V22.9917H168V32.8182H167.061ZM167.7 28.2598V27.4501H170.789V28.2598H167.7ZM170.939 27.9999L170.069 27.85L174.098 22.9917H175.137L170.939 27.9999ZM174.308 32.8182L170.089 27.9099L170.879 27.4601L175.437 32.8282H174.308V32.8182Z" fill="white"/>
<path d="M179.865 32.8182V23.5615L180.125 23.8414H176.027V22.9917H184.643V23.8414H180.545L180.805 23.5615V32.8182H179.865Z" fill="white"/>
<path d="M187.482 36.5471C187.032 36.5471 186.603 36.4671 186.213 36.3172C185.813 36.1672 185.483 35.9473 185.203 35.6574L185.673 34.9377C185.923 35.1976 186.193 35.3975 186.493 35.5175C186.793 35.6474 187.122 35.7074 187.502 35.7074C187.952 35.7074 188.352 35.5774 188.702 35.3275C189.052 35.0776 189.371 34.6178 189.671 33.958L190.351 32.4486L190.481 32.2786L194.639 22.9819H195.599L190.551 34.1479C190.291 34.7477 190.001 35.2276 189.691 35.5674C189.381 35.9073 189.052 36.1572 188.682 36.3072C188.322 36.4571 187.912 36.5371 187.472 36.5371L187.482 36.5471ZM190.321 33.0683L185.763 23.0019H186.763L190.901 32.2386L190.321 33.0683Z" fill="white"/>
<path d="M197.328 36.4668V22.9916H198.228V26.2105L198.078 27.9199L198.268 29.6292V36.4568H197.328V36.4668ZM202.256 32.8881C201.386 32.8881 200.607 32.6882 199.917 32.2883C199.217 31.8884 198.668 31.3086 198.258 30.5689C197.848 29.8292 197.648 28.9295 197.648 27.9099C197.648 26.8902 197.848 25.9905 198.258 25.2508C198.668 24.5011 199.217 23.9313 199.917 23.5314C200.617 23.1316 201.396 22.9316 202.256 22.9316C203.186 22.9316 204.015 23.1416 204.745 23.5614C205.475 23.9813 206.055 24.5711 206.474 25.3208C206.894 26.0705 207.104 26.9402 207.104 27.9199C207.104 28.8995 206.894 29.7692 206.474 30.5189C206.055 31.2687 205.475 31.8585 204.745 32.2783C204.015 32.6982 203.176 32.9081 202.256 32.9081V32.8881ZM202.196 32.0384C202.946 32.0384 203.626 31.8684 204.225 31.5186C204.825 31.1787 205.305 30.6889 205.645 30.0591C205.995 29.4293 206.165 28.7096 206.165 27.8899C206.165 27.0702 205.995 26.3404 205.645 25.7206C205.305 25.1009 204.825 24.621 204.225 24.2712C203.626 23.9313 202.946 23.7513 202.196 23.7513C201.446 23.7513 200.767 23.9213 200.177 24.2712C199.577 24.621 199.107 25.1009 198.768 25.7206C198.428 26.3404 198.248 27.0702 198.248 27.8899C198.248 28.7096 198.418 29.4293 198.768 30.0591C199.117 30.6889 199.587 31.1687 200.177 31.5186C200.777 31.8684 201.446 32.0384 202.196 32.0384Z" fill="white"/>
<path d="M212.552 32.8983C211.822 32.8983 211.192 32.7783 210.663 32.5484C210.133 32.3185 209.723 31.9886 209.443 31.5588C209.163 31.1289 209.023 30.6391 209.023 30.0893C209.023 29.5895 209.143 29.1296 209.373 28.7198C209.603 28.3099 209.993 27.98 210.533 27.7201C211.072 27.4602 211.792 27.3303 212.702 27.3303H216.31V28.06H212.712C211.692 28.06 210.983 28.2499 210.573 28.6198C210.163 28.9897 209.963 29.4695 209.963 30.0293C209.963 30.6591 210.203 31.1589 210.683 31.5388C211.162 31.9186 211.832 32.1086 212.692 32.1086C213.551 32.1086 214.221 31.9186 214.791 31.5388C215.361 31.1589 215.781 30.6191 216.06 29.8994L216.32 30.5391C216.06 31.2589 215.611 31.8187 214.971 32.2385C214.341 32.6584 213.531 32.8683 212.552 32.8683V32.8983ZM216.09 32.8183V30.5791L216.05 30.2392V26.5506C216.05 25.6309 215.8 24.9411 215.311 24.4613C214.811 23.9815 214.091 23.7416 213.142 23.7416C212.462 23.7416 211.832 23.8615 211.252 24.0914C210.673 24.3213 210.173 24.6212 209.753 24.9811L209.283 24.3014C209.773 23.8615 210.363 23.5216 211.052 23.2717C211.742 23.0318 212.462 22.9019 213.222 22.9019C214.441 22.9019 215.371 23.2117 216.03 23.8215C216.68 24.4413 217.01 25.351 217.01 26.5705V32.7983H216.11L216.09 32.8183Z" fill="white"/>
<path d="M59.6753 54.2007C59.3554 54.2007 59.0255 54.1507 58.6957 54.0308C58.3658 53.9208 58.0659 53.7409 57.816 53.501L57.936 53.381C58.1659 53.6109 58.4458 53.7809 58.7656 53.8908C59.0855 53.9908 59.4054 54.0408 59.7153 54.0408C60.0551 54.0408 60.355 53.9808 60.6149 53.8608C60.8748 53.7509 61.0847 53.6009 61.2246 53.411C61.3746 53.2211 61.4445 53.0112 61.4445 52.7912C61.4445 52.4613 61.2946 52.1914 60.9847 52.0115C60.6749 51.8216 60.275 51.7316 59.7652 51.7316H58.9556V51.5517H59.7752C60.0551 51.5517 60.315 51.5117 60.5449 51.4317C60.7748 51.3517 60.9647 51.2318 61.0947 51.0818C61.2246 50.9319 61.2946 50.742 61.2946 50.532C61.2946 50.2921 61.2146 50.0922 61.0547 49.9323C60.8948 49.7723 60.6948 49.6524 60.435 49.5724C60.1851 49.4924 59.9052 49.4524 59.6053 49.4624C59.3554 49.4624 59.1055 49.5124 58.8456 49.5824C58.5857 49.6523 58.3358 49.7623 58.0959 49.9123L58.006 49.7523C58.2659 49.5924 58.5357 49.4824 58.8056 49.4024C59.0855 49.3225 59.3654 49.2925 59.6453 49.2925C59.9651 49.2925 60.265 49.3425 60.5449 49.4324C60.8248 49.5224 61.0447 49.6623 61.2146 49.8523C61.3846 50.0422 61.4645 50.2621 61.4645 50.532C61.4645 50.7819 61.3846 50.9919 61.2346 51.1618C61.0847 51.3318 60.8848 51.4717 60.6349 51.5717C60.385 51.6616 60.1051 51.7116 59.7952 51.7116L59.8252 51.6117C60.395 51.6117 60.8348 51.7216 61.1447 51.9415C61.4545 52.1615 61.6045 52.4514 61.6045 52.8212C61.6045 53.1211 61.5145 53.371 61.3246 53.5809C61.1347 53.7909 60.8948 53.9508 60.5949 54.0708C60.295 54.1807 59.9751 54.2407 59.6253 54.2407L59.6753 54.2007Z" fill="white"/>
<path d="M64.7032 54.2004C64.3333 54.2004 64.0234 54.1405 63.7635 54.0305C63.5037 53.9205 63.3037 53.7606 63.1738 53.5507C63.0339 53.3407 62.9739 53.1008 62.9739 52.8309C62.9739 52.601 63.0339 52.3811 63.1438 52.1812C63.2538 51.9812 63.4337 51.8213 63.6836 51.7013C63.9335 51.5814 64.2833 51.5214 64.7132 51.5214H66.6723V51.7013H64.7032C64.1534 51.7013 63.7536 51.8113 63.5137 52.0212C63.2738 52.2311 63.1638 52.501 63.1638 52.8309C63.1638 53.2008 63.3037 53.4907 63.5736 53.7006C63.8435 53.9105 64.2234 54.0305 64.7032 54.0305C65.183 54.0305 65.5628 53.9205 65.8727 53.7006C66.1825 53.4807 66.4124 53.1808 66.5624 52.7809L66.6523 52.9009C66.5224 53.2908 66.2925 53.6107 65.9626 53.8406C65.6328 54.0805 65.2129 54.2004 64.7032 54.2004ZM66.5624 54.1705V50.9816C66.5624 50.4718 66.4324 50.0919 66.1626 49.832C65.9027 49.5721 65.5128 49.4421 65.013 49.4421C64.6432 49.4421 64.3133 49.5021 64.0134 49.6321C63.7136 49.762 63.4537 49.922 63.2338 50.1219L63.1038 49.9919C63.3337 49.772 63.6236 49.5921 63.9535 49.4621C64.2833 49.3322 64.6332 49.2622 65.003 49.2622C65.5728 49.2622 66.0026 49.4122 66.3025 49.6921C66.6024 49.9819 66.7523 50.4118 66.7523 50.9716V54.1705H66.5624Z" fill="white"/>
<path d="M68.6516 54.1705V49.2822H68.8415V54.1705H68.6516ZM68.7715 51.7713V51.6014H70.2509V51.7713H68.7715ZM70.2309 51.7413L70.061 51.6814L72.1501 49.2822H72.38L70.2309 51.7413ZM72.3 54.1705L70.061 51.6814L70.2309 51.6014L72.5299 54.1605H72.3V54.1705Z" fill="white"/>
<path d="M73.8394 55.9998V49.2822H74.0293V51.0815L73.9394 51.7413L74.0293 52.4011V55.9998H73.8394ZM76.2084 54.1904C75.7586 54.1904 75.3588 54.0905 75.0089 53.8705C74.6591 53.6506 74.3792 53.3707 74.1693 53.0008C73.9594 52.631 73.8594 52.2011 73.8594 51.7213C73.8594 51.2415 73.9594 50.8116 74.1693 50.4318C74.3692 50.0619 74.6491 49.772 75.0089 49.5621C75.3688 49.3522 75.7586 49.2422 76.2084 49.2422C76.6582 49.2422 77.0581 49.3522 77.4179 49.5621C77.7778 49.772 78.0577 50.0619 78.2676 50.4318C78.4775 50.8016 78.5775 51.2315 78.5775 51.7213C78.5775 52.2111 78.4775 52.621 78.2676 53.0008C78.0577 53.3707 77.7778 53.6606 77.4179 53.8705C77.0581 54.0805 76.6582 54.1904 76.2084 54.1904ZM76.2084 54.0105C76.6283 54.0105 76.9981 53.9105 77.328 53.7206C77.6578 53.5307 77.9177 53.2608 78.1076 52.9109C78.2976 52.561 78.3875 52.1711 78.3875 51.7213C78.3875 51.2715 78.2876 50.8716 78.1076 50.5217C77.9277 50.1719 77.6578 49.9119 77.328 49.712C76.9981 49.5121 76.6283 49.4221 76.2084 49.4221C75.7886 49.4221 75.4188 49.5221 75.0889 49.712C74.759 49.9119 74.4991 50.1719 74.3092 50.5217C74.1193 50.8616 74.0293 51.2615 74.0293 51.7213C74.0293 52.1811 74.1193 52.561 74.3092 52.9109C74.4991 53.2608 74.759 53.5307 75.0889 53.7206C75.4188 53.9105 75.7886 54.0105 76.2084 54.0105Z" fill="white"/>
<path d="M81.7561 54.1905L80.0868 54.1705V49.2822H80.2767V51.1116L81.8461 51.1316C82.4458 51.1316 82.8956 51.2715 83.2155 51.5214C83.5254 51.7713 83.6853 52.1412 83.6853 52.641C83.6853 53.1408 83.5254 53.5407 83.1955 53.8006C82.8656 54.0605 82.3958 54.1905 81.7661 54.1905H81.7561ZM81.7761 54.0205C82.3458 54.0205 82.7657 53.9106 83.0556 53.6807C83.3454 53.4507 83.4854 53.1009 83.4854 52.651C83.4854 52.2012 83.3454 51.8713 83.0556 51.6514C82.7757 51.4315 82.3458 51.3215 81.7761 51.3115L80.2767 51.2915V54.0005L81.7761 54.0205ZM84.6749 54.1705V49.2822H84.8648V54.1705H84.6749Z" fill="white"/>
<path d="M87.9136 54.1707V49.3924L87.9935 49.4724H85.9344V49.2925H90.0927V49.4724H88.0335L88.1135 49.3924V54.1707H87.9236H87.9136Z" fill="white"/>
<path d="M92.9615 54.2007C92.5117 54.2007 92.1018 54.1007 91.742 53.8808C91.3821 53.6609 91.1023 53.381 90.9023 53.0011C90.6924 52.6212 90.5925 52.2014 90.5925 51.7216C90.5925 51.2417 90.6924 50.8119 90.9023 50.442C91.1123 50.0721 91.3921 49.7823 91.742 49.5723C92.0918 49.3624 92.5017 49.2524 92.9615 49.2524C93.4213 49.2524 93.8211 49.3624 94.181 49.5723C94.5408 49.7823 94.8207 50.0721 95.0306 50.442C95.2405 50.8119 95.3405 51.2417 95.3405 51.7216C95.3405 52.2014 95.2405 52.6312 95.0306 53.0011C94.8307 53.371 94.5408 53.6709 94.181 53.8808C93.8211 54.0907 93.4213 54.2007 92.9615 54.2007ZM92.9615 54.0207C93.3813 54.0207 93.7512 53.9208 94.081 53.7308C94.4109 53.5309 94.6708 53.261 94.8607 52.9211C95.0506 52.5812 95.1406 52.1814 95.1406 51.7316C95.1406 51.2817 95.0406 50.8819 94.8607 50.532C94.6708 50.1921 94.4109 49.9222 94.081 49.7323C93.7512 49.5423 93.3813 49.4424 92.9615 49.4424C92.5417 49.4424 92.1718 49.5423 91.842 49.7323C91.5121 49.9222 91.2522 50.1921 91.0623 50.532C90.8724 50.8719 90.7724 51.2717 90.7724 51.7316C90.7724 52.1914 90.8724 52.5713 91.0623 52.9211C91.2522 53.271 91.5121 53.5409 91.842 53.7308C92.1718 53.9208 92.5417 54.0207 92.9615 54.0207Z" fill="white"/>
<path d="M98.959 54.2007C98.4892 54.2007 98.0694 54.1007 97.6995 53.8808C97.3297 53.6709 97.0498 53.381 96.8299 53.0011C96.62 52.6212 96.51 52.2014 96.51 51.7216C96.51 51.2417 96.61 50.8119 96.7999 50.442C96.9998 50.0721 97.2597 49.7823 97.6096 49.5723C97.9594 49.3624 98.3392 49.2524 98.7691 49.2524C99.1989 49.2524 99.5787 49.3524 99.9286 49.5623C100.268 49.7723 100.538 50.0522 100.738 50.422C100.938 50.7919 101.038 51.2017 101.038 51.6816V51.7316H96.62V51.5516H100.938L100.858 51.6916C100.858 51.2617 100.768 50.8819 100.588 50.542C100.408 50.2021 100.158 49.9322 99.8486 49.7423C99.5388 49.5523 99.1789 49.4524 98.7791 49.4524C98.3792 49.4524 98.0294 49.5523 97.7095 49.7423C97.3896 49.9322 97.1497 50.2021 96.9698 50.542C96.7899 50.8819 96.6999 51.2617 96.6999 51.6916V51.7316C96.6999 52.1814 96.7999 52.5713 96.9898 52.9211C97.1897 53.271 97.4496 53.5409 97.7895 53.7308C98.1293 53.9208 98.5192 54.0207 98.949 54.0207C99.2789 54.0207 99.5887 53.9608 99.8786 53.8308C100.168 53.7008 100.418 53.5209 100.608 53.261L100.738 53.391C100.528 53.6509 100.258 53.8508 99.9486 53.9907C99.6387 54.1307 99.2988 54.1907 98.949 54.1907L98.959 54.2007Z" fill="white"/>
<path d="M106.276 54.2004C105.906 54.2004 105.596 54.1405 105.336 54.0305C105.076 53.9205 104.876 53.7606 104.747 53.5507C104.607 53.3407 104.547 53.1008 104.547 52.8309C104.547 52.601 104.607 52.3811 104.717 52.1812C104.827 51.9812 105.006 51.8213 105.256 51.7013C105.506 51.5814 105.856 51.5214 106.286 51.5214H108.245V51.7013H106.286C105.736 51.7013 105.336 51.8113 105.096 52.0212C104.857 52.2311 104.747 52.501 104.747 52.8309C104.747 53.2008 104.886 53.4907 105.156 53.7006C105.426 53.9205 105.806 54.0305 106.286 54.0305C106.766 54.0305 107.146 53.9205 107.455 53.7006C107.765 53.4807 107.995 53.1808 108.145 52.7809L108.235 52.9009C108.105 53.2908 107.875 53.6107 107.545 53.8406C107.216 54.0805 106.796 54.2004 106.286 54.2004H106.276ZM108.135 54.1705V50.9816C108.135 50.4718 108.005 50.0919 107.735 49.832C107.475 49.5721 107.086 49.4421 106.586 49.4421C106.216 49.4421 105.886 49.5021 105.586 49.6321C105.286 49.762 105.026 49.922 104.807 50.1219L104.677 49.9919C104.906 49.772 105.196 49.5921 105.526 49.4621C105.856 49.3322 106.206 49.2622 106.576 49.2622C107.146 49.2622 107.575 49.4122 107.875 49.6921C108.175 49.9819 108.325 50.4118 108.325 50.9716V54.1705H108.135Z" fill="white"/>
<path d="M110.224 54.1705V49.2822H110.414V54.1705H110.224ZM110.344 51.7713V51.6014H111.824V51.7713H110.344ZM111.814 51.7413L111.644 51.6814L113.733 49.2822H113.963L111.814 51.7413ZM113.883 54.1705L111.644 51.6814L111.814 51.6014L114.113 54.1605H113.883V54.1705Z" fill="white"/>
<path d="M115.402 54.1705V49.2822H115.592V54.0005H119.211V49.2822H119.4V54.1705H115.402ZM120.05 55.44V54.1005L120.12 54.1805H119.201V54.0105H120.23V55.45H120.04L120.05 55.44Z" fill="white"/>
<path d="M121.56 54.1705V49.2822H121.75V53.8406L125.568 49.2822H125.718V54.1705H125.528V49.6121L121.71 54.1705H121.56Z" fill="white"/>
<path d="M129.776 54.2007C129.326 54.2007 128.917 54.1007 128.557 53.8808C128.197 53.6609 127.917 53.381 127.717 53.0011C127.507 52.6212 127.407 52.2014 127.407 51.7216C127.407 51.2417 127.507 50.8119 127.717 50.442C127.927 50.0721 128.207 49.7823 128.557 49.5723C128.907 49.3624 129.316 49.2524 129.776 49.2524C130.236 49.2524 130.636 49.3624 130.996 49.5723C131.356 49.7823 131.635 50.0721 131.845 50.442C132.055 50.8119 132.155 51.2417 132.155 51.7216C132.155 52.2014 132.055 52.6312 131.845 53.0011C131.645 53.371 131.356 53.6709 130.996 53.8808C130.636 54.0907 130.236 54.2007 129.776 54.2007ZM129.776 54.0207C130.196 54.0207 130.566 53.9208 130.896 53.7308C131.226 53.5309 131.485 53.261 131.675 52.9211C131.865 52.5812 131.955 52.1814 131.955 51.7316C131.955 51.2817 131.855 50.8819 131.675 50.532C131.485 50.1921 131.226 49.9222 130.896 49.7323C130.566 49.5423 130.196 49.4424 129.776 49.4424C129.356 49.4424 128.987 49.5423 128.657 49.7323C128.327 49.9222 128.067 50.1921 127.877 50.532C127.687 50.8719 127.587 51.2717 127.587 51.7316C127.587 52.1914 127.687 52.5713 127.877 52.9211C128.067 53.271 128.327 53.5409 128.657 53.7308C128.987 53.9208 129.356 54.0207 129.776 54.0207Z" fill="white"/>
<path d="M133.655 54.1705V49.2822H133.845V51.6114H137.523V49.2822H137.713V54.1705H137.523V51.7913H133.845V54.1705H133.655Z" fill="white"/>
<path d="M141.661 54.2007C141.191 54.2007 140.772 54.1007 140.402 53.8808C140.032 53.6709 139.752 53.381 139.532 53.0011C139.322 52.6212 139.212 52.2014 139.212 51.7216C139.212 51.2417 139.312 50.8119 139.502 50.442C139.702 50.0721 139.962 49.7823 140.312 49.5723C140.662 49.3624 141.042 49.2524 141.471 49.2524C141.901 49.2524 142.281 49.3524 142.631 49.5623C142.971 49.7723 143.241 50.0522 143.441 50.422C143.64 50.7919 143.74 51.2017 143.74 51.6816V51.7316H139.322V51.5516H143.64L143.56 51.6916C143.56 51.2617 143.471 50.8819 143.291 50.542C143.111 50.2021 142.861 49.9322 142.551 49.7423C142.241 49.5523 141.881 49.4524 141.481 49.4524C141.081 49.4524 140.732 49.5523 140.412 49.7423C140.092 49.9322 139.852 50.2021 139.672 50.542C139.492 50.8819 139.402 51.2617 139.402 51.6916V51.7316C139.402 52.1814 139.502 52.5713 139.692 52.9211C139.892 53.271 140.152 53.5409 140.492 53.7308C140.832 53.9208 141.221 54.0207 141.651 54.0207C141.981 54.0207 142.291 53.9608 142.581 53.8308C142.871 53.7008 143.121 53.5209 143.311 53.261L143.441 53.391C143.231 53.6509 142.961 53.8508 142.651 53.9907C142.341 54.1307 142.001 54.1907 141.651 54.1907L141.661 54.2007Z" fill="white"/>
<path d="M145.38 55.9998V49.2822H145.57V51.0815L145.48 51.7413L145.57 52.4011V55.9998H145.38ZM147.749 54.1904C147.299 54.1904 146.899 54.0905 146.549 53.8705C146.199 53.6506 145.92 53.3707 145.71 53.0008C145.5 52.631 145.4 52.2011 145.4 51.7213C145.4 51.2415 145.5 50.8116 145.71 50.4318C145.91 50.0619 146.189 49.772 146.549 49.5621C146.909 49.3522 147.299 49.2422 147.749 49.2422C148.199 49.2422 148.598 49.3522 148.958 49.5621C149.318 49.772 149.598 50.0619 149.808 50.4318C150.018 50.8016 150.118 51.2315 150.118 51.7213C150.118 52.2111 150.018 52.621 149.808 53.0008C149.598 53.3707 149.318 53.6606 148.958 53.8705C148.598 54.0805 148.199 54.1904 147.749 54.1904ZM147.749 54.0105C148.169 54.0105 148.538 53.9105 148.868 53.7206C149.198 53.5307 149.458 53.2608 149.648 52.9109C149.838 52.561 149.928 52.1711 149.928 51.7213C149.928 51.2715 149.828 50.8716 149.648 50.5217C149.468 50.1719 149.198 49.9119 148.868 49.712C148.538 49.5121 148.169 49.4221 147.749 49.4221C147.329 49.4221 146.959 49.5221 146.629 49.712C146.299 49.9119 146.039 50.1719 145.85 50.5217C145.66 50.8616 145.57 51.2615 145.57 51.7213C145.57 52.1811 145.66 52.561 145.85 52.9109C146.039 53.2608 146.299 53.5307 146.629 53.7206C146.959 53.9105 147.329 54.0105 147.749 54.0105Z" fill="white"/>
<path d="M151.627 54.1705V49.2822H151.817V51.6114H155.496V49.2822H155.685V54.1705H155.496V51.7913H151.817V54.1705H151.627Z" fill="white"/>
<path d="M159.554 54.2007C159.104 54.2007 158.694 54.1007 158.334 53.8808C157.974 53.6609 157.695 53.381 157.495 53.0011C157.285 52.6212 157.185 52.2014 157.185 51.7216C157.185 51.2417 157.285 50.8119 157.495 50.442C157.705 50.0721 157.984 49.7823 158.334 49.5723C158.684 49.3624 159.094 49.2524 159.554 49.2524C160.014 49.2524 160.413 49.3624 160.773 49.5723C161.133 49.7823 161.413 50.0721 161.623 50.442C161.833 50.8119 161.933 51.2417 161.933 51.7216C161.933 52.2014 161.833 52.6312 161.623 53.0011C161.423 53.371 161.133 53.6709 160.773 53.8808C160.413 54.0907 160.014 54.2007 159.554 54.2007ZM159.554 54.0207C159.974 54.0207 160.344 53.9208 160.673 53.7308C161.003 53.5309 161.263 53.261 161.453 52.9211C161.643 52.5812 161.733 52.1814 161.733 51.7316C161.733 51.2817 161.633 50.8819 161.453 50.532C161.263 50.1921 161.003 49.9222 160.673 49.7323C160.344 49.5423 159.974 49.4424 159.554 49.4424C159.134 49.4424 158.764 49.5423 158.434 49.7323C158.104 49.9222 157.845 50.1921 157.655 50.532C157.465 50.8719 157.365 51.2717 157.365 51.7316C157.365 52.1914 157.465 52.5713 157.655 52.9211C157.845 53.271 158.104 53.5409 158.434 53.7308C158.764 53.9208 159.134 54.0207 159.554 54.0207Z" fill="white"/>
<path d="M165.541 54.2007C165.072 54.2007 164.652 54.1007 164.282 53.8808C163.912 53.6709 163.632 53.381 163.412 53.0011C163.202 52.6212 163.092 52.2014 163.092 51.7216C163.092 51.2417 163.192 50.8119 163.382 50.442C163.582 50.0721 163.842 49.7823 164.192 49.5723C164.542 49.3624 164.922 49.2524 165.351 49.2524C165.781 49.2524 166.161 49.3524 166.511 49.5623C166.851 49.7723 167.121 50.0522 167.321 50.422C167.521 50.7919 167.62 51.2017 167.62 51.6816V51.7316H163.202V51.5516H167.521L167.441 51.6916C167.441 51.2617 167.351 50.8819 167.171 50.542C166.991 50.2021 166.741 49.9322 166.431 49.7423C166.121 49.5523 165.761 49.4524 165.361 49.4524C164.962 49.4524 164.612 49.5523 164.292 49.7423C163.972 49.9322 163.732 50.2021 163.552 50.542C163.372 50.8819 163.282 51.2617 163.282 51.6916V51.7316C163.282 52.1814 163.382 52.5713 163.572 52.9211C163.772 53.271 164.032 53.5409 164.372 53.7308C164.712 53.9208 165.102 54.0207 165.531 54.0207C165.861 54.0207 166.171 53.9608 166.461 53.8308C166.751 53.7008 167.001 53.5209 167.191 53.261L167.321 53.391C167.111 53.6509 166.841 53.8508 166.531 53.9907C166.221 54.1307 165.881 54.1907 165.531 54.1907L165.541 54.2007Z" fill="white"/>
<path d="M173.468 54.2007C173.018 54.2007 172.608 54.1007 172.249 53.8808C171.889 53.6609 171.609 53.381 171.409 53.0011C171.199 52.6212 171.099 52.2014 171.099 51.7216C171.099 51.2417 171.199 50.8119 171.409 50.442C171.619 50.0721 171.899 49.7823 172.249 49.5723C172.598 49.3624 173.008 49.2524 173.468 49.2524C173.928 49.2524 174.328 49.3624 174.688 49.5723C175.047 49.7823 175.327 50.0721 175.537 50.442C175.747 50.8119 175.847 51.2417 175.847 51.7216C175.847 52.2014 175.747 52.6312 175.537 53.0011C175.337 53.371 175.047 53.6709 174.688 53.8808C174.328 54.0907 173.928 54.2007 173.468 54.2007ZM173.468 54.0207C173.888 54.0207 174.258 53.9208 174.588 53.7308C174.917 53.5309 175.177 53.261 175.367 52.9211C175.557 52.5812 175.647 52.1814 175.647 51.7316C175.647 51.2817 175.547 50.8819 175.367 50.532C175.177 50.1921 174.917 49.9222 174.588 49.7323C174.258 49.5423 173.888 49.4424 173.468 49.4424C173.048 49.4424 172.678 49.5423 172.349 49.7323C172.019 49.9222 171.759 50.1921 171.569 50.532C171.379 50.8719 171.279 51.2717 171.279 51.7316C171.279 52.1914 171.379 52.5713 171.569 52.9211C171.759 53.271 172.019 53.5409 172.349 53.7308C172.678 53.9208 173.048 54.0207 173.468 54.0207Z" fill="white"/>
<path d="M179.606 54.2006C179.226 54.2006 178.886 54.1306 178.586 53.9906C178.286 53.8507 178.036 53.6408 177.836 53.3609C177.636 53.081 177.476 52.7411 177.366 52.3412C177.257 51.9414 177.207 51.4815 177.207 50.9717C177.207 50.4119 177.267 49.9321 177.376 49.5522C177.486 49.1624 177.636 48.8425 177.826 48.6026C178.006 48.3526 178.206 48.1627 178.426 48.0128C178.646 47.8728 178.856 47.7629 179.066 47.6829C179.276 47.6029 179.456 47.5529 179.616 47.5129L181.735 46.9731L181.785 47.1631L179.725 47.6729C179.566 47.7129 179.386 47.7629 179.186 47.8328C178.976 47.9028 178.776 48.0028 178.566 48.1427C178.356 48.2827 178.166 48.4626 177.996 48.7025C177.826 48.9424 177.686 49.2423 177.576 49.6222C177.466 49.9921 177.416 50.4619 177.416 51.0017C177.416 51.0817 177.416 51.1417 177.416 51.2016C177.416 51.2616 177.426 51.3216 177.436 51.3816C177.446 51.4415 177.456 51.5415 177.476 51.6715L177.366 51.7314C177.366 51.2816 177.466 50.8718 177.666 50.5219C177.866 50.172 178.136 49.8921 178.486 49.6922C178.836 49.4922 179.236 49.3923 179.686 49.3923C180.135 49.3923 180.545 49.4922 180.885 49.6922C181.225 49.8921 181.505 50.172 181.705 50.5319C181.905 50.8917 182.005 51.3016 182.005 51.7714C182.005 52.2413 181.905 52.6511 181.705 53.021C181.505 53.3909 181.225 53.6807 180.865 53.8907C180.505 54.1006 180.085 54.2106 179.606 54.2106V54.2006ZM179.676 54.0206C180.095 54.0206 180.455 53.9207 180.785 53.7307C181.105 53.5308 181.355 53.2709 181.545 52.931C181.725 52.5911 181.815 52.2013 181.815 51.7714C181.815 51.3416 181.725 50.9517 181.545 50.6218C181.365 50.292 181.115 50.0321 180.785 49.8521C180.465 49.6622 180.095 49.5722 179.676 49.5722C179.256 49.5722 178.896 49.6622 178.566 49.8521C178.246 50.042 177.996 50.292 177.806 50.6218C177.616 50.9517 177.536 51.3316 177.536 51.7714C177.536 52.2113 177.626 52.5911 177.806 52.931C177.986 53.2709 178.236 53.5408 178.566 53.7307C178.886 53.9207 179.256 54.0206 179.676 54.0206Z" fill="white"/>
<path d="M183.514 54.1705V49.2822H183.704V54.0705L183.624 53.9905H186.633L186.573 54.0705V49.2822H186.763V54.0705L186.683 53.9905H189.701L189.621 54.0705V49.2822H189.811V54.1705H183.494H183.514ZM190.431 55.3101V54.0905L190.511 54.1705H189.611V54.0005H190.621V55.3101H190.431Z" fill="white"/>
<path d="M193.97 54.2007C193.5 54.2007 193.08 54.1007 192.71 53.8808C192.34 53.6709 192.06 53.381 191.84 53.0011C191.631 52.6212 191.521 52.2014 191.521 51.7216C191.521 51.2417 191.621 50.8119 191.81 50.442C192.01 50.0721 192.27 49.7823 192.62 49.5723C192.97 49.3624 193.35 49.2524 193.78 49.2524C194.209 49.2524 194.589 49.3524 194.939 49.5623C195.279 49.7723 195.549 50.0522 195.749 50.422C195.949 50.7919 196.049 51.2017 196.049 51.6816V51.7316H191.631V51.5516H195.949L195.869 51.6916C195.869 51.2617 195.779 50.8819 195.599 50.542C195.419 50.2021 195.169 49.9322 194.859 49.7423C194.549 49.5523 194.189 49.4524 193.79 49.4524C193.39 49.4524 193.04 49.5523 192.72 49.7423C192.4 49.9322 192.16 50.2021 191.98 50.542C191.8 50.8819 191.711 51.2617 191.711 51.6916V51.7316C191.711 52.1814 191.81 52.5713 192 52.9211C192.2 53.271 192.46 53.5409 192.8 53.7308C193.14 53.9208 193.53 54.0207 193.96 54.0207C194.289 54.0207 194.599 53.9608 194.889 53.8308C195.179 53.7008 195.429 53.5209 195.619 53.261L195.749 53.391C195.539 53.6509 195.269 53.8508 194.959 53.9907C194.649 54.1307 194.309 54.1907 193.96 54.1907L193.97 54.2007Z" fill="white"/>
<path d="M199.557 54.2007C199.097 54.2007 198.688 54.1007 198.328 53.8808C197.968 53.6709 197.678 53.381 197.468 53.0111C197.258 52.6412 197.158 52.2114 197.158 51.7216C197.158 51.2317 197.258 50.8119 197.468 50.432C197.678 50.0622 197.958 49.7723 198.328 49.5623C198.688 49.3524 199.097 49.2524 199.557 49.2524C199.907 49.2524 200.237 49.3224 200.547 49.4524C200.857 49.5823 201.107 49.7823 201.317 50.0522L201.187 50.1921C200.997 49.9322 200.767 49.7423 200.477 49.6223C200.197 49.5024 199.887 49.4424 199.557 49.4424C199.137 49.4424 198.758 49.5423 198.428 49.7323C198.098 49.9222 197.828 50.1921 197.638 50.532C197.448 50.8719 197.348 51.2717 197.348 51.7316C197.348 52.1914 197.448 52.5813 197.638 52.9311C197.828 53.271 198.098 53.5409 198.428 53.7408C198.758 53.9308 199.137 54.0307 199.557 54.0307C199.887 54.0307 200.187 53.9708 200.477 53.8408C200.757 53.7108 200.997 53.5309 201.187 53.271L201.317 53.411C201.107 53.6709 200.857 53.8708 200.547 54.0107C200.237 54.1507 199.917 54.2107 199.557 54.2107V54.2007Z" fill="white"/>
<path d="M203.965 54.1707V49.3924L204.045 49.4724H201.986V49.2925H206.145V49.4724H204.085L204.165 49.3924V54.1707H203.975H203.965Z" fill="white"/>
<path d="M207.204 54.1705V49.2822H209.123C209.643 49.2822 210.043 49.3822 210.343 49.5921C210.643 49.802 210.793 50.1119 210.793 50.5218C210.793 50.9316 210.643 51.2215 210.353 51.4215C210.063 51.6214 209.683 51.7214 209.213 51.7214L209.333 51.6314C209.903 51.6314 210.323 51.7413 210.583 51.9513C210.843 52.1612 210.973 52.4711 210.973 52.8809C210.973 53.2908 210.823 53.6107 210.533 53.8306C210.243 54.0505 209.783 54.1605 209.163 54.1605H207.204V54.1705ZM207.394 51.6014H209.133C209.603 51.6014 209.963 51.5114 210.223 51.3315C210.483 51.1516 210.613 50.8817 210.613 50.5318C210.613 50.1819 210.483 49.912 210.223 49.7321C209.963 49.5521 209.603 49.4622 209.133 49.4622H207.394V51.6014ZM207.394 53.9905H209.193C209.713 53.9905 210.113 53.9006 210.383 53.7306C210.653 53.5607 210.793 53.2708 210.793 52.8909C210.793 52.5111 210.673 52.2312 210.433 52.0512C210.193 51.8713 209.813 51.7913 209.293 51.7913H207.404V54.0005L207.394 53.9905Z" fill="white"/>
<path d="M214.471 54.2007C214.021 54.2007 213.611 54.1007 213.252 53.8808C212.892 53.6609 212.612 53.381 212.412 53.0011C212.202 52.6212 212.102 52.2014 212.102 51.7216C212.102 51.2417 212.202 50.8119 212.412 50.442C212.622 50.0721 212.902 49.7823 213.252 49.5723C213.601 49.3624 214.011 49.2524 214.471 49.2524C214.931 49.2524 215.331 49.3624 215.691 49.5723C216.05 49.7823 216.33 50.0721 216.54 50.442C216.75 50.8119 216.85 51.2417 216.85 51.7216C216.85 52.2014 216.75 52.6312 216.54 53.0011C216.34 53.371 216.05 53.6709 215.691 53.8808C215.331 54.0907 214.931 54.2007 214.471 54.2007ZM214.471 54.0207C214.891 54.0207 215.261 53.9208 215.591 53.7308C215.92 53.5309 216.18 53.261 216.37 52.9211C216.56 52.5812 216.65 52.1814 216.65 51.7316C216.65 51.2817 216.55 50.8819 216.37 50.532C216.18 50.1921 215.92 49.9222 215.591 49.7323C215.261 49.5423 214.891 49.4424 214.471 49.4424C214.051 49.4424 213.681 49.5423 213.352 49.7323C213.022 49.9222 212.762 50.1921 212.572 50.532C212.382 50.8719 212.282 51.2717 212.282 51.7316C212.282 52.1914 212.382 52.5713 212.572 52.9211C212.762 53.271 213.022 53.5409 213.352 53.7308C213.681 53.9208 214.051 54.0207 214.471 54.0207Z" fill="white"/>
<path d="M216.96 41.585H57.5162V42.5846H216.96V41.585Z" fill="white"/>
</g>
<defs>
<clipPath id="clip0_1819_1413">
<rect width="217" height="56" fill="white"/>
</clipPath>
</defs>
</svg>
